<?xml version="1.0" standalone="no"?>
<!DOCTYPE svg PUBLIC "-//W3C//DTD SVG 20010904//EN"
 "http://www.w3.org/TR/2001/REC-SVG-20010904/DTD/svg10.dtd">
<svg version="1.0" xmlns="http://www.w3.org/2000/svg"
 width="801.000000pt" height="747.000000pt" viewBox="0 0 801.000000 747.000000"
 preserveAspectRatio="xMidYMid meet">

<g transform="translate(0.000000,747.000000) scale(0.100000,-0.100000)"
fill="#000000" stroke="none">
<path d="M1710 7257 c0 -2 34 -21 75 -41 77 -38 118 -82 143 -151 6 -16 11
-24 11 -17 3 48 -67 139 -132 171 -37 18 -39 21 -17 22 23 1 23 2 -5 9 -33 8
-75 12 -75 7z"/>
<path d="M1835 7230 c11 -5 27 -9 35 -9 9 0 8 4 -5 9 -11 5 -27 9 -35 9 -9 0
-8 -4 5 -9z"/>
<path d="M1925 7200 c76 -39 115 -73 150 -129 19 -30 35 -51 35 -45 0 16 -55
97 -81 120 -32 28 -88 60 -119 68 -15 4 -8 -2 15 -14z"/>
<path d="M1942 7010 c0 -14 2 -19 5 -12 2 6 2 18 0 25 -3 6 -5 1 -5 -13z"/>
<path d="M2111 7005 c1 -19 18 -51 18 -35 0 8 -4 22 -9 30 -5 8 -9 11 -9 5z"/>
<path d="M1952 6874 c-1 -61 -4 -140 -7 -175 l-4 -64 10 60 c5 33 8 112 6 175
l-3 115 -2 -111z"/>
<path d="M2131 6934 c0 -11 3 -14 6 -6 3 7 2 16 -1 19 -3 4 -6 -2 -5 -13z"/>
<path d="M2142 6885 c0 -16 2 -22 5 -12 2 9 2 23 0 30 -3 6 -5 -1 -5 -18z"/>
<path d="M2149 6655 c-5 -149 -14 -239 -34 -354 -14 -84 -24 -155 -22 -157 5
-6 44 220 57 336 6 52 10 158 8 235 l-3 140 -6 -200z"/>
<path d="M1932 6605 c0 -16 2 -22 5 -12 2 9 2 23 0 30 -3 6 -5 -1 -5 -18z"/>
<path d="M1922 6545 c0 -16 2 -22 5 -12 2 9 2 23 0 30 -3 6 -5 -1 -5 -18z"/>
<path d="M1906 6474 c-4 -20 -5 -38 -3 -40 3 -3 8 11 11 32 4 20 5 38 3 40 -3
3 -8 -11 -11 -32z"/>
<path d="M1872 6333 c-12 -47 -20 -88 -18 -90 5 -6 48 156 44 168 -2 5 -13
-30 -26 -78z"/>
<path d="M1836 6204 c-4 -14 -5 -28 -3 -31 3 -2 8 8 11 23 4 14 5 28 3 31 -3
2 -8 -8 -11 -23z"/>
<path d="M1741 5909 c-46 -138 -81 -252 -79 -254 2 -2 41 109 87 246 46 138
81 252 79 254 -2 2 -41 -109 -87 -246z"/>
<path d="M2066 6044 c-10 -47 -15 -88 -13 -90 2 -3 12 34 21 82 10 47 15 88
13 90 -2 3 -12 -34 -21 -82z"/>
<path d="M2031 5879 c-7 -33 -10 -63 -8 -65 2 -3 10 23 16 57 7 33 10 63 8 65
-2 3 -10 -23 -16 -57z"/>
<path d="M2006 5764 c-4 -20 -5 -38 -3 -40 3 -3 8 11 11 32 4 20 5 38 3 40 -3
3 -8 -11 -11 -32z"/>
<path d="M1986 5674 c-4 -20 -5 -38 -3 -40 3 -3 8 11 11 32 4 20 5 38 3 40 -3
3 -8 -11 -11 -32z"/>
<path d="M1972 5600 c0 -14 2 -19 5 -12 2 6 2 18 0 25 -3 6 -5 1 -5 -13z"/>
<path d="M1636 5584 c-4 -14 -5 -28 -3 -31 3 -2 8 8 11 23 4 14 5 28 3 31 -3
2 -8 -8 -11 -23z"/>
<path d="M1931 5408 c-45 -237 -61 -348 -65 -483 l-5 -120 9 115 c12 146 33
294 71 489 17 84 28 155 26 158 -3 2 -19 -69 -36 -159z"/>
<path d="M1621 5524 c0 -11 3 -14 6 -6 3 7 2 16 -1 19 -3 4 -6 -2 -5 -13z"/>
<path d="M1611 5484 c0 -11 3 -14 6 -6 3 7 2 16 -1 19 -3 4 -6 -2 -5 -13z"/>
<path d="M1596 5424 c-4 -20 -5 -38 -3 -40 3 -3 8 11 11 32 4 20 5 38 3 40 -3
3 -8 -11 -11 -32z"/>
<path d="M1547 5183 c-49 -240 -53 -248 -114 -267 -26 -8 -40 -15 -30 -15 38
-2 88 28 101 61 17 39 89 383 84 398 -1 5 -20 -74 -41 -177z"/>
<path d="M1280 4890 c-41 -6 -42 -7 -10 -8 19 0 53 3 75 7 33 7 35 9 10 8 -16
0 -50 -3 -75 -7z"/>
<path d="M1183 4873 c9 -2 25 -2 35 0 9 3 1 5 -18 5 -19 0 -27 -2 -17 -5z"/>
<path d="M1055 4860 c-34 -6 -35 -7 -10 -8 17 0 50 3 75 7 40 8 41 8 10 8 -19
0 -53 -3 -75 -7z"/>
<path d="M3858 4853 c50 -2 134 -2 185 0 50 1 9 3 -93 3 -102 0 -143 -2 -92
-3z"/>
<path d="M978 4843 c6 -2 18 -2 25 0 6 3 1 5 -13 5 -14 0 -19 -2 -12 -5z"/>
<path d="M3605 4835 c-94 -17 -53 -17 65 -1 59 9 78 14 50 14 -25 0 -76 -6
-115 -13z"/>
<path d="M4141 4846 c2 -2 33 -6 69 -9 41 -3 54 -2 35 3 -31 8 -112 13 -104 6z"/>
<path d="M890 4830 c-20 -6 -21 -8 -5 -8 11 0 34 4 50 8 27 7 27 8 5 8 -14 0
-36 -4 -50 -8z"/>
<path d="M4300 4820 c34 -11 60 -11 35 0 -11 5 -29 8 -40 8 -16 0 -15 -2 5 -8z"/>
<path d="M801 4809 c-18 -6 -31 -12 -29 -14 2 -3 24 1 49 9 49 16 33 20 -20 5z"/>
<path d="M3498 4813 c6 -2 18 -2 25 0 6 3 1 5 -13 5 -14 0 -19 -2 -12 -5z"/>
<path d="M3420 4800 c-20 -6 -21 -8 -5 -8 11 0 31 4 45 8 20 6 21 8 5 8 -11 0
-31 -4 -45 -8z"/>
<path d="M4375 4800 c11 -5 27 -9 35 -9 9 0 8 4 -5 9 -11 5 -27 9 -35 9 -9 0
-8 -4 5 -9z"/>
<path d="M1870 4786 c0 -11 108 -69 357 -191 l357 -175 35 34 c48 46 136 100
246 152 49 24 85 43 79 44 -25 1 -254 -123 -309 -168 l-59 -48 -336 164 c-184
90 -343 173 -352 184 -15 17 -18 17 -18 4z"/>
<path d="M683 4757 c-65 -33 -153 -101 -153 -117 0 -15 39 -11 95 10 61 23 46
26 -18 4 -26 -9 -52 -14 -58 -12 -17 6 63 66 145 110 39 21 67 38 61 38 -5 0
-38 -15 -72 -33z"/>
<path d="M3315 4775 c-54 -17 -33 -18 30 -1 28 8 41 14 30 14 -11 0 -38 -5
-60 -13z"/>
<path d="M4450 4779 c116 -51 256 -128 308 -170 70 -56 156 -160 158 -191 1
-11 6 -24 13 -31 8 -8 11 3 12 43 0 47 2 51 10 30 34 -85 14 -260 -40 -355
-76 -132 -251 -294 -396 -366 -44 -22 -69 -37 -55 -33 144 40 389 255 469 411
76 151 61 360 -35 472 -20 23 -38 40 -41 37 -2 -2 11 -28 31 -58 19 -29 38
-71 41 -93 l6 -40 -22 30 c-46 62 -176 182 -234 215 -68 40 -188 95 -225 104
l-25 6 25 -11z"/>
<path d="M3225 4750 c-13 -5 -14 -9 -5 -9 8 0 24 4 35 9 13 5 14 9 5 9 -8 0
-24 -4 -35 -9z"/>
<path d="M955 4735 c6 -2 89 -5 185 -7 96 -2 155 -1 130 3 -44 7 -335 11 -315
4z"/>
<path d="M855 4720 c-42 -11 -1 -11 50 -1 34 7 35 9 10 9 -16 0 -43 -4 -60 -8z"/>
<path d="M1333 4713 c9 -2 23 -2 30 0 6 3 -1 5 -18 5 -16 0 -22 -2 -12 -5z"/>
<path d="M798 4703 c7 -3 16 -2 19 1 4 3 -2 6 -13 5 -11 0 -14 -3 -6 -6z"/>
<path d="M1415 4699 c51 -10 92 -10 50 1 -16 4 -43 8 -60 8 -25 0 -24 -2 10
-9z"/>
<path d="M3070 4700 c-18 -12 -2 -12 25 0 13 6 15 9 5 9 -8 0 -22 -4 -30 -9z"/>
<path d="M758 4693 c7 -3 16 -2 19 1 4 3 -2 6 -13 5 -11 0 -14 -3 -6 -6z"/>
<path d="M695 4680 c-13 -5 -14 -9 -5 -9 8 0 24 4 35 9 13 5 14 9 5 9 -8 0
-24 -4 -35 -9z"/>
<path d="M1508 4683 c7 -3 16 -2 19 1 4 3 -2 6 -13 5 -11 0 -14 -3 -6 -6z"/>
<path d="M3020 4680 c-8 -5 -10 -10 -5 -10 6 0 17 5 25 10 8 5 11 10 5 10 -5
0 -17 -5 -25 -10z"/>
<path d="M1548 4673 c7 -3 16 -2 19 1 4 3 -2 6 -13 5 -11 0 -14 -3 -6 -6z"/>
<path d="M1655 4637 c99 -40 278 -134 365 -192 84 -56 221 -175 238 -207 13
-23 10 -30 -36 -99 -52 -79 -72 -113 -72 -125 0 -4 15 17 33 47 18 30 47 74
65 98 18 24 32 52 32 61 0 24 -142 157 -231 217 -143 96 -416 234 -461 233 -7
-1 23 -15 67 -33z"/>
<path d="M2970 4660 c-8 -5 -10 -10 -5 -10 6 0 17 5 25 10 8 5 11 10 5 10 -5
0 -17 -5 -25 -10z"/>
<path d="M4075 4502 c-31 -5 8 -7 105 -8 134 0 164 -3 218 -22 144 -51 232
-140 232 -234 0 -59 -37 -105 -119 -149 -31 -16 -45 -27 -31 -23 14 3 45 18
70 33 139 83 116 236 -51 338 -90 56 -277 84 -424 65z"/>
<path d="M3973 4483 c9 -2 25 -2 35 0 9 3 1 5 -18 5 -19 0 -27 -2 -17 -5z"/>
<path d="M3913 4473 c9 -2 23 -2 30 0 6 3 -1 5 -18 5 -16 0 -22 -2 -12 -5z"/>
<path d="M3775 4450 c-94 -24 -61 -24 40 -1 44 11 69 19 55 19 -14 0 -56 -8
-95 -18z"/>
<path d="M3678 4423 c7 -3 16 -2 19 1 4 3 -2 6 -13 5 -11 0 -14 -3 -6 -6z"/>
<path d="M3638 4413 c7 -3 16 -2 19 1 4 3 -2 6 -13 5 -11 0 -14 -3 -6 -6z"/>
<path d="M3598 4403 c7 -3 16 -2 19 1 4 3 -2 6 -13 5 -11 0 -14 -3 -6 -6z"/>
<path d="M3515 4385 c-39 -14 -40 -14 -5 -8 41 7 82 22 60 22 -8 0 -33 -7 -55
-14z"/>
<path d="M3390 4350 c-30 -10 -50 -18 -45 -19 6 0 37 8 70 18 33 11 53 19 45
19 -8 1 -40 -7 -70 -18z"/>
<path d="M3271 4319 c-18 -6 -31 -12 -29 -14 2 -3 24 1 49 9 49 16 33 20 -20
5z"/>
<path d="M3175 4288 c-184 -64 -225 -90 -206 -126 11 -20 90 -56 148 -67 15
-3 -3 6 -41 20 -65 23 -106 49 -106 65 0 15 58 45 160 81 58 21 98 38 90 38
-8 0 -28 -5 -45 -11z"/>
<path d="M3170 4080 c34 -11 60 -11 35 0 -11 5 -29 8 -40 8 -16 0 -15 -2 5 -8z"/>
<path d="M3238 4063 c6 -2 18 -2 25 0 6 3 1 5 -13 5 -14 0 -19 -2 -12 -5z"/>
<path d="M3288 4053 c6 -2 18 -2 25 0 6 3 1 5 -13 5 -14 0 -19 -2 -12 -5z"/>
<path d="M4385 4045 c-22 -8 -31 -13 -20 -13 11 0 36 6 55 13 45 17 18 17 -35
0z"/>
<path d="M3365 4039 c51 -10 92 -10 50 1 -16 4 -43 8 -60 8 -25 0 -24 -2 10
-9z"/>
<path d="M3530 4014 c47 -7 155 -15 240 -18 l155 -5 -140 9 c-77 4 -175 13
-218 19 -43 6 -88 10 -100 10 -12 -1 16 -8 63 -15z"/>
<path d="M4270 4020 c-34 -7 -34 -7 -5 -8 17 0 41 4 55 8 33 11 0 11 -50 0z"/>
<path d="M4178 4003 c12 -2 30 -2 40 0 9 3 -1 5 -23 4 -22 0 -30 -2 -17 -4z"/>
<path d="M2136 3985 c-9 -26 -7 -32 5 -12 6 10 9 21 6 23 -2 3 -7 -2 -11 -11z"/>
<path d="M2549 3938 c-104 -141 -176 -275 -194 -363 -3 -16 8 5 24 48 38 100
84 180 161 285 58 80 62 83 83 69 315 -205 552 -327 778 -401 113 -37 322 -86
360 -85 13 0 -25 11 -86 23 -318 66 -549 164 -895 377 -91 56 -169 103 -175
105 -5 2 -31 -24 -56 -58z"/>
<path d="M3943 3992 c-6 -4 28 -6 75 -4 132 4 148 9 37 10 -55 1 -105 -2 -112
-6z"/>
<path d="M2116 3924 c-4 -14 -5 -28 -3 -31 3 -2 8 8 11 23 4 14 5 28 3 31 -3
2 -8 -8 -11 -23z"/>
<path d="M2096 3858 c-3 -13 -5 -32 -5 -43 1 -11 5 -2 10 19 10 42 6 62 -5 24z"/>
<path d="M2077 3738 c-4 -29 -11 -127 -17 -218 -6 -91 -20 -235 -31 -320 -23
-186 -24 -248 -4 -323 28 -109 74 -175 162 -235 38 -27 43 -27 43 -4 0 19 -61
175 -66 169 -2 -2 10 -38 27 -81 18 -42 29 -79 26 -83 -11 -10 -89 50 -118 91
-76 103 -91 221 -61 461 12 88 24 205 27 260 3 55 11 151 16 213 11 115 7 168
-4 70z"/>
<path d="M4300 3669 c-57 -14 -64 -17 -28 -13 47 5 147 32 118 32 -8 0 -49 -9
-90 -19z"/>
<path d="M3474 3668 c-13 -21 56 -67 150 -103 65 -25 264 -70 272 -62 2 2 -35
12 -83 21 -49 10 -120 28 -160 42 -69 23 -173 78 -173 93 0 3 18 5 40 3 22 -2
40 -2 40 1 0 8 -81 13 -86 5z"/>
<path d="M3571 3656 c2 -2 83 -12 179 -21 176 -18 343 -15 435 5 38 9 38 9
-10 4 -144 -14 -278 -16 -355 -5 -85 13 -256 24 -249 17z"/>
<path d="M2331 3490 c-6 -28 -11 -61 -10 -73 0 -12 7 9 15 47 7 39 12 72 10
74 -2 2 -9 -20 -15 -48z"/>
<path d="M3919 3491 c8 -5 -17 -7 -60 -5 l-74 3 70 -8 c76 -9 116 -4 93 10 -7
5 -20 9 -28 9 -12 0 -12 -2 -1 -9z"/>
<path d="M2313 3315 c0 -44 2 -61 4 -37 2 23 2 59 0 80 -2 20 -4 1 -4 -43z"/>
<path d="M2322 3205 c0 -16 2 -22 5 -12 2 9 2 23 0 30 -3 6 -5 -1 -5 -18z"/>
<path d="M2396 3173 c-3 -3 -6 -16 -6 -27 0 -16 3 -18 9 -7 10 16 16 7 26 -37
4 -18 9 -31 11 -29 7 6 -17 96 -26 102 -4 2 -10 2 -14 -2z"/>
<path d="M2331 3154 c0 -11 3 -14 6 -6 3 7 2 16 -1 19 -3 4 -6 -2 -5 -13z"/>
<path d="M2341 3114 c0 -11 3 -14 6 -6 3 7 2 16 -1 19 -3 4 -6 -2 -5 -13z"/>
<path d="M2403 3085 c0 -22 2 -30 4 -17 2 12 2 30 0 40 -3 9 -5 -1 -4 -23z"/>
<path d="M2350 3081 c0 -18 97 -263 114 -287 23 -31 25 -13 5 46 -14 42 -17
47 -14 20 l5 -35 -16 35 c-9 19 -34 80 -55 135 -21 55 -39 94 -39 86z"/>
<path d="M2441 3050 c0 -8 4 -24 9 -35 5 -13 9 -14 9 -5 0 8 -4 24 -9 35 -5
13 -9 14 -9 5z"/>
<path d="M2412 3025 c0 -11 3 -29 8 -40 11 -25 11 1 0 35 -6 20 -8 21 -8 5z"/>
<path d="M2466 2970 c27 -109 172 -343 289 -468 64 -69 194 -171 238 -187 8
-4 50 21 100 59 164 124 353 224 532 282 55 18 94 33 86 33 -7 1 -61 -15 -120
-35 -160 -53 -375 -171 -525 -288 l-59 -46 -49 27 c-150 82 -331 295 -432 508
-23 50 -48 101 -54 115 l-12 25 6 -25z"/>
<path d="M2431 2950 c0 -8 4 -24 9 -35 5 -13 9 -14 9 -5 0 8 -4 24 -9 35 -5
13 -9 14 -9 5z"/>
<path d="M2140 2868 c0 -12 5 -30 10 -38 8 -11 9 -8 4 13 -3 15 -4 27 -1 27 3
0 38 -60 77 -132 40 -73 95 -162 121 -198 85 -116 347 -356 531 -487 134 -94
320 -179 277 -126 -8 9 -100 80 -205 159 -104 78 -227 176 -272 219 -77 72
-172 186 -172 206 0 22 33 4 105 -58 133 -116 177 -151 241 -188 35 -21 64
-44 66 -54 3 -14 4 -14 10 1 6 13 -1 22 -25 34 -67 35 -175 115 -262 193 -83
76 -127 102 -142 87 -21 -21 105 -177 224 -276 47 -39 161 -127 254 -197 94
-69 168 -128 165 -130 -7 -8 -158 71 -230 119 -180 122 -493 405 -567 513 -18
28 -68 113 -110 190 -76 139 -99 167 -99 123z"/>
<path d="M3975 2731 c-43 -4 7 -7 133 -7 112 -1 202 -1 200 1 -8 6 -271 11
-333 6z"/>
<path d="M5810 2730 c-14 -4 11 -5 55 -2 44 2 82 6 84 8 8 7 -114 2 -139 -6z"/>
<path d="M5988 2710 c92 -56 97 -183 11 -270 -19 -18 -97 -84 -174 -146 -143
-114 -285 -252 -370 -359 -81 -103 -106 -133 -250 -299 -296 -340 -646 -747
-732 -852 -197 -239 -206 -287 -38 -199 262 137 507 323 905 690 202 186 415
376 549 490 102 87 107 112 8 43 -146 -104 -94 -54 168 161 383 315 561 441
757 537 62 30 102 52 88 48 -53 -15 -230 -110 -335 -180 -114 -76 -282 -204
-470 -359 -356 -291 -586 -487 -581 -493 3 -2 77 51 165 119 159 121 226 158
114 63 -75 -64 -338 -300 -483 -434 -305 -282 -503 -441 -711 -572 -133 -83
-263 -152 -278 -147 -15 5 44 98 134 209 94 115 656 766 851 986 34 39 89 106
122 150 101 134 228 259 403 399 96 77 180 152 195 175 38 58 44 134 14 187
-20 36 -64 73 -87 73 -4 0 7 -9 25 -20z m-88 -925 c-13 -14 -28 -25 -34 -25
-6 1 3 12 19 25 39 32 45 32 15 0z m-90 -38 c0 -2 -15 -14 -32 -27 l-33 -23
24 26 c21 23 41 35 41 24z"/>
<path d="M3805 2709 c-20 -5 -9 -6 30 -2 33 3 62 7 64 9 8 7 -63 2 -94 -7z"/>
<path d="M4333 2713 c9 -2 25 -2 35 0 9 3 1 5 -18 5 -19 0 -27 -2 -17 -5z"/>
<path d="M4410 2700 c14 -4 34 -8 45 -8 16 0 15 2 -5 8 -14 4 -34 8 -45 8 -16
0 -15 -2 5 -8z"/>
<path d="M5670 2679 c-36 -17 -144 -79 -241 -140 -119 -74 -185 -109 -205
-109 -16 0 -78 12 -139 25 -160 37 -188 39 -55 5 63 -17 140 -33 170 -36 l55
-6 180 113 c99 62 212 127 250 145 39 18 66 33 60 34 -5 0 -39 -14 -75 -31z"/>
<path d="M3738 2693 c6 -2 18 -2 25 0 6 3 1 5 -13 5 -14 0 -19 -2 -12 -5z"/>
<path d="M4569 2650 c34 -17 84 -48 109 -70 31 -28 67 -47 114 -61 38 -12 71
-19 74 -17 2 3 -25 13 -62 23 -46 12 -79 29 -111 57 -45 39 -151 98 -175 98
-7 0 16 -14 51 -30z"/>
<path d="M3890 2641 c-19 -4 33 -5 115 -3 83 2 155 5 160 7 19 6 -240 2 -275
-4z"/>
<path d="M4225 2623 l50 -17 -115 -12 c-89 -9 -97 -11 -35 -8 44 2 99 4 123 4
23 0 42 5 42 10 0 12 -41 29 -85 36 -18 3 -9 -3 20 -13z"/>
<path d="M3780 2620 c-20 -6 -21 -8 -5 -8 11 0 34 4 50 8 27 7 27 8 5 8 -14 0
-36 -4 -50 -8z"/>
<path d="M5831 2609 c-53 -16 -32 -18 34 -4 36 8 48 13 30 13 -16 0 -45 -4
-64 -9z"/>
<path d="M7125 2615 c-5 -1 -36 -8 -68 -15 -32 -6 -56 -14 -54 -17 3 -2 25 1
48 8 24 6 89 15 144 19 l100 7 -80 1 c-44 0 -84 -1 -90 -3z"/>
<path d="M3705 2600 c-13 -5 -14 -9 -5 -9 8 0 24 4 35 9 13 5 14 9 5 9 -8 0
-24 -4 -35 -9z"/>
<path d="M5937 2599 c6 -8 13 -25 16 -39 4 -17 5 -15 4 9 -1 21 -8 36 -17 39
-12 4 -13 2 -3 -9z"/>
<path d="M7335 2591 c51 -23 83 -58 91 -99 6 -27 2 -36 -26 -62 -18 -16 -28
-30 -22 -30 15 0 62 59 62 77 0 35 -35 85 -75 108 -23 14 -48 25 -56 25 -8 0
4 -9 26 -19z"/>
<path d="M5686 2545 c-146 -74 -285 -185 -273 -218 5 -15 148 -13 192 3 l30
10 -30 -5 c-16 -2 -65 -8 -107 -11 -93 -8 -98 0 -38 57 56 53 143 111 247 164
48 24 83 45 77 45 -5 0 -50 -20 -98 -45z"/>
<path d="M3993 2573 c9 -2 23 -2 30 0 6 3 -1 5 -18 5 -16 0 -22 -2 -12 -5z"/>
<path d="M3933 2563 c9 -2 23 -2 30 0 6 3 -1 5 -18 5 -16 0 -22 -2 -12 -5z"/>
<path d="M3461 2505 c-173 -85 -361 -209 -361 -239 0 -7 28 -22 63 -34 83 -30
99 -27 19 2 -72 27 -77 30 -67 47 16 24 225 153 350 215 72 35 125 64 119 64
-6 0 -61 -25 -123 -55z"/>
<path d="M3800 2534 c-105 -35 -196 -89 -257 -150 -50 -49 -67 -84 -42 -84 5
0 7 5 3 11 -3 6 22 38 57 73 71 68 170 123 284 155 39 11 61 20 50 20 -11 0
-54 -11 -95 -25z"/>
<path d="M5905 2487 c-42 -44 -131 -96 -218 -127 -28 -10 -46 -19 -40 -19 21
-2 138 46 184 74 50 31 96 72 110 98 14 25 9 21 -36 -26z"/>
<path d="M4888 2493 c7 -3 16 -2 19 1 4 3 -2 6 -13 5 -11 0 -14 -3 -6 -6z"/>
<path d="M6957 2453 c18 -2 50 -2 70 0 21 2 7 4 -32 4 -38 0 -55 -2 -38 -4z"/>
<path d="M3965 2441 c-27 -4 45 -5 160 -3 116 2 215 5 220 7 18 6 -328 2 -380
-4z"/>
<path d="M6875 2440 c-13 -5 -14 -9 -5 -9 8 0 24 4 35 9 13 5 14 9 5 9 -8 0
-24 -4 -35 -9z"/>
<path d="M7070 2447 c3 -3 40 -20 82 -36 77 -31 150 -39 193 -22 12 5 -8 6
-45 4 -56 -5 -76 -1 -130 22 -71 29 -108 41 -100 32z"/>
<path d="M4407 2420 c56 -23 194 -117 201 -137 3 -10 -49 -13 -220 -16 l-223
-2 228 -3 c263 -2 264 -2 165 78 -62 50 -126 85 -173 95 -16 3 -6 -4 22 -15z"/>
<path d="M3873 2423 c9 -2 23 -2 30 0 6 3 -1 5 -18 5 -16 0 -22 -2 -12 -5z"/>
<path d="M6770 2401 c-145 -64 -278 -148 -418 -265 -91 -76 -142 -129 -142
-149 0 -7 10 3 21 21 27 41 174 165 291 243 50 34 145 88 212 120 127 62 147
79 36 30z"/>
<path d="M3790 2410 c-20 -6 -21 -8 -5 -8 11 0 31 4 45 8 20 6 21 8 5 8 -11 0
-31 -4 -45 -8z"/>
<path d="M4690 2406 c0 -24 153 -136 166 -123 3 3 -9 13 -28 22 -45 24 -128
87 -128 99 0 5 43 7 108 4 66 -3 92 -2 67 3 -22 4 -73 8 -112 8 -57 1 -73 -2
-73 -13z"/>
<path d="M3715 2390 c-13 -5 -14 -9 -5 -9 8 0 24 4 35 9 13 5 14 9 5 9 -8 0
-24 -4 -35 -9z"/>
<path d="M4945 2390 c17 -4 39 -8 50 -8 16 0 15 2 -5 8 -14 4 -36 8 -50 8 -22
0 -22 -1 5 -8z"/>
<path d="M3592 2348 c-40 -17 -71 -32 -69 -34 2 -2 41 12 88 31 46 19 77 34
69 34 -8 -1 -48 -14 -88 -31z"/>
<path d="M5040 2370 c34 -11 60 -11 35 0 -11 5 -29 8 -40 8 -16 0 -15 -2 5 -8z"/>
<path d="M3740 2365 c0 -13 247 -101 257 -91 4 3 -2 6 -13 7 -14 1 -13 3 6 8
21 6 18 9 -24 15 -27 4 -86 21 -132 37 -85 30 -94 32 -94 24z"/>
<path d="M5115 2346 c36 -26 -6 -67 -92 -91 -26 -7 -41 -14 -33 -14 80 -5 193
90 134 113 -25 10 -29 7 -9 -8z"/>
<path d="M4055 2280 c40 -9 112 -13 104 -6 -2 2 -35 6 -74 9 -54 4 -61 4 -30
-3z"/>
<path d="M4895 2265 c17 -8 41 -14 55 -14 15 0 5 6 -25 14 -62 17 -69 17 -30
0z"/>
<path d="M4045 2255 c22 -8 49 -13 60 -13 11 0 -2 6 -30 14 -63 17 -84 16 -30
-1z"/>
<path d="M4131 2235 c16 -15 265 -35 443 -35 161 0 206 -3 215 -14 10 -11 -6
-16 -91 -26 -129 -15 -142 -17 -96 -19 52 -1 191 20 203 31 7 6 3 14 -9 24
-16 11 -63 14 -225 14 -124 0 -250 6 -316 15 -121 16 -130 17 -124 10z"/>
<path d="M3285 2195 c22 -8 49 -13 60 -13 11 0 -2 6 -30 14 -63 17 -84 16 -30
-1z"/>
<path d="M2912 2162 c-2 -43 18 -50 59 -22 l31 23 131 -42 c73 -22 148 -43
167 -46 19 -3 -17 10 -80 29 -63 19 -135 42 -159 50 -57 21 -74 20 -96 -4 -26
-29 -43 -25 -48 13 l-4 32 -1 -33z"/>
<path d="M3395 2170 c17 -4 44 -8 60 -8 25 0 24 2 -10 9 -51 10 -92 10 -50 -1z"/>
<path d="M3491 2156 c2 -3 78 -12 169 -20 113 -11 255 -15 459 -14 l296 2
-365 7 c-201 4 -399 12 -440 18 -81 11 -126 14 -119 7z"/>
<path d="M4453 2133 c20 -2 54 -2 75 0 20 2 3 4 -38 4 -41 0 -58 -2 -37 -4z"/>
<path d="M4880 2074 c-44 -11 -47 -13 -15 -9 22 2 55 7 73 11 l34 7 -52 -104
c-133 -264 -385 -699 -568 -979 -262 -400 -362 -570 -362 -613 0 -32 23 -40
96 -34 46 3 46 3 -14 5 -67 2 -79 12 -68 56 8 31 127 227 327 536 184 283 277
438 426 705 92 165 223 417 223 430 0 8 -41 4 -100 -11z"/>
<path d="M3348 2063 c7 -3 16 -2 19 1 4 3 -2 6 -13 5 -11 0 -14 -3 -6 -6z"/>
<path d="M3388 2053 c6 -2 18 -2 25 0 6 3 1 5 -13 5 -14 0 -19 -2 -12 -5z"/>
<path d="M4740 2050 c-34 -7 -34 -7 -5 -8 17 0 44 4 60 8 27 7 27 8 5 8 -14
-1 -41 -4 -60 -8z"/>
<path d="M3485 2034 c33 -7 69 -13 80 -13 11 1 -7 7 -40 15 -33 7 -69 13 -80
13 -11 -1 7 -7 40 -15z"/>
<path d="M4653 2033 c9 -2 25 -2 35 0 9 3 1 5 -18 5 -19 0 -27 -2 -17 -5z"/>
<path d="M4578 2023 c12 -2 30 -2 40 0 9 3 -1 5 -23 4 -22 0 -30 -2 -17 -4z"/>
<path d="M3625 2010 c84 -17 263 -30 384 -28 122 1 120 1 -59 9 -102 4 -216
12 -255 18 -80 12 -130 13 -70 1z"/>
<path d="M4450 2013 c-14 -2 -90 -8 -170 -13 l-145 -9 160 6 c151 5 321 21
220 20 -22 0 -51 -2 -65 -4z"/>
<path d="M6343 1989 c-18 -12 -31 -25 -28 -29 5 -7 -90 -93 -255 -231 -54 -45
-529 -425 -901 -720 -101 -81 -279 -223 -396 -317 -253 -205 -300 -236 -401
-274 -42 -16 -64 -26 -49 -23 48 10 131 44 177 73 25 16 239 183 476 373 237
189 549 438 694 554 433 344 720 586 720 605 0 13 0 13 -37 -11z"/>
<path d="M6160 1917 c-25 -27 -160 -142 -300 -255 -140 -113 -315 -258 -389
-321 -73 -64 -140 -122 -149 -128 -29 -24 -3 -25 30 -2 60 41 368 280 640 495
146 116 279 221 295 233 15 12 23 21 16 19 -6 -2 -125 -93 -264 -203 -403
-319 -610 -477 -615 -472 -5 5 184 163 456 382 229 184 295 240 315 272 27 40
13 32 -35 -20z m-750 -652 c-7 -8 -17 -15 -23 -15 -6 0 -2 7 9 15 25 19 30 19
14 0z"/>
<path d="M4258 383 c7 -3 16 -2 19 1 4 3 -2 6 -13 5 -11 0 -14 -3 -6 -6z"/>
<path d="M4208 373 c6 -2 18 -2 25 0 6 3 1 5 -13 5 -14 0 -19 -2 -12 -5z"/>
<path d="M4153 363 c9 -2 23 -2 30 0 6 3 -1 5 -18 5 -16 0 -22 -2 -12 -5z"/>
</g>
</svg>
