<?xml version="1.0" standalone="no"?>
<!DOCTYPE svg PUBLIC "-//W3C//DTD SVG 20010904//EN"
 "http://www.w3.org/TR/2001/REC-SVG-20010904/DTD/svg10.dtd">
<svg version="1.0" xmlns="http://www.w3.org/2000/svg"
 width="1004.000000pt" height="591.000000pt" viewBox="0 0 1004.000000 591.000000"
 preserveAspectRatio="xMidYMid meet" style="color:white;">

<g transform="translate(0.000000,591.000000) scale(0.100000,-0.100000)"
fill="#000000" stroke="none">
<path d="M3354 5589 c-8 -14 14 -29 43 -29 12 0 27 -9 33 -20 6 -11 22 -23 35
-26 l25 -6 0 -167 c-1 -91 -6 -186 -11 -211 -6 -25 -12 -58 -14 -75 -1 -16 -5
-37 -8 -45 -3 -8 -10 -55 -16 -105 -16 -139 -18 -148 -35 -160 -9 -7 -16 -19
-16 -27 0 -8 -6 -28 -14 -44 -8 -16 -17 -60 -21 -97 -4 -45 -12 -70 -21 -74
-8 -3 -14 -18 -14 -34 0 -16 -9 -57 -19 -91 -11 -35 -23 -84 -26 -110 -3 -27
-12 -49 -20 -52 -8 -3 -15 -16 -15 -28 0 -13 -9 -43 -20 -67 -11 -24 -20 -62
-21 -85 0 -22 -7 -75 -15 -116 -8 -41 -15 -81 -16 -87 -1 -7 -11 -13 -23 -13
-11 0 -25 -4 -30 -9 -10 -9 -86 -17 -270 -27 -61 -3 -124 -12 -142 -20 -17 -8
-41 -14 -53 -14 -12 0 -18 -4 -15 -10 3 -6 -2 -13 -12 -16 -10 -3 -37 -15 -60
-26 -36 -16 -43 -24 -43 -49 0 -31 14 -37 39 -16 9 7 50 24 91 37 67 22 92 25
226 24 124 -1 156 -4 175 -17 18 -13 46 -17 114 -17 76 0 100 -4 141 -24 27
-13 58 -33 68 -45 11 -11 30 -21 42 -21 17 0 25 -7 30 -25 3 -14 11 -25 17
-25 17 0 114 -68 135 -95 11 -14 27 -25 36 -25 9 0 16 -4 16 -8 0 -14 45 -62
58 -62 7 0 12 -14 12 -34 0 -25 -5 -35 -20 -39 -11 -3 -20 -12 -20 -21 0 -9
-4 -16 -10 -16 -5 0 -10 -7 -10 -15 0 -8 -15 -37 -34 -64 l-34 -48 -12 -264
c-7 -145 -16 -268 -20 -274 -15 -19 -33 -206 -27 -271 4 -45 14 -75 32 -101
14 -21 25 -44 25 -51 0 -13 88 -58 96 -49 3 2 -2 24 -11 48 -9 24 -17 49 -17
56 -1 7 -7 14 -15 17 -15 6 -18 76 -2 76 5 0 17 -17 25 -37 8 -21 23 -56 33
-78 11 -22 24 -54 30 -70 7 -17 32 -53 56 -80 24 -28 50 -61 57 -75 17 -35 49
-70 64 -70 7 0 14 -10 16 -22 2 -15 11 -24 26 -26 12 -2 22 -10 22 -18 0 -8 7
-14 16 -14 10 0 14 -5 10 -15 -4 -10 8 -24 37 -43 23 -15 48 -33 55 -40 8 -6
22 -17 33 -22 10 -6 19 -17 19 -25 0 -8 11 -17 25 -21 14 -3 25 -9 25 -13 0
-4 14 -12 30 -18 17 -6 30 -7 30 -2 0 20 -63 78 -88 81 -15 2 -27 8 -27 15 0
6 -11 20 -25 31 -56 45 -120 113 -120 128 0 20 -24 44 -44 44 -9 0 -16 8 -16
18 0 9 -12 31 -27 47 -16 16 -28 33 -28 38 0 4 -7 12 -15 17 -26 16 -4 20 27
5 17 -9 34 -26 37 -39 4 -15 17 -26 37 -32 20 -6 33 -17 35 -29 3 -22 39 -55
60 -55 8 0 14 -7 14 -15 0 -8 7 -15 15 -15 8 0 29 -14 47 -30 17 -17 41 -30
53 -30 13 0 28 -7 35 -15 7 -8 21 -15 31 -15 11 0 19 -4 19 -9 0 -5 9 -13 20
-16 11 -3 20 -13 20 -20 0 -12 5 -12 24 -3 20 9 33 7 69 -10 24 -11 73 -26
108 -32 35 -7 74 -16 87 -21 13 -5 32 -9 42 -9 11 0 20 -4 20 -10 0 -6 30 -10
70 -10 40 0 70 -4 70 -10 0 -14 557 -14 565 0 3 6 35 10 70 10 35 0 67 4 70
10 3 5 21 10 40 10 19 0 37 4 40 10 3 5 19 10 36 10 24 0 29 -4 29 -25 0 -14
-11 -38 -25 -53 -15 -16 -27 -44 -31 -72 -8 -55 -20 -80 -39 -80 -8 0 -15 -6
-15 -14 0 -7 -6 -19 -13 -25 -8 -6 -19 -29 -26 -51 -7 -23 -19 -44 -27 -47 -8
-3 -14 -15 -14 -28 0 -12 -7 -28 -15 -35 -8 -7 -15 -21 -15 -31 0 -11 -4 -19
-10 -19 -5 0 -10 -6 -10 -13 0 -7 -9 -18 -20 -25 -11 -7 -20 -21 -20 -32 0
-12 -7 -23 -15 -26 -8 -4 -15 -11 -15 -17 0 -5 -12 -35 -27 -65 -27 -52 -46
-80 -85 -123 -10 -10 -18 -26 -18 -34 0 -22 -29 -75 -41 -75 -5 0 -14 -11 -19
-25 -10 -25 -60 -106 -71 -115 -4 -3 -10 -22 -14 -43 -4 -20 -11 -37 -16 -37
-18 0 -8 -17 17 -29 16 -7 31 -8 38 -3 6 5 42 12 80 15 37 4 74 11 81 17 6 5
15 7 18 4 3 -4 28 9 55 29 27 19 59 38 71 42 12 3 29 17 37 31 9 13 23 24 30
24 8 0 14 4 14 9 0 16 53 61 71 61 11 0 19 5 19 12 0 16 111 118 128 118 8 0
16 8 19 19 2 10 16 25 31 32 14 8 50 38 81 66 30 29 58 53 62 53 4 0 30 22 59
50 29 27 56 50 61 50 5 0 18 8 28 18 10 9 44 40 76 67 31 28 85 76 119 107 35
32 66 58 70 58 18 0 64 48 57 59 -5 8 -13 5 -26 -9 -10 -11 -24 -20 -32 -20
-7 0 -16 -7 -19 -15 -7 -17 -139 -125 -153 -125 -6 0 -11 -6 -11 -14 0 -8 -9
-18 -20 -21 -11 -3 -20 -13 -20 -21 0 -8 -9 -14 -20 -14 -10 0 -24 -8 -29 -19
-11 -19 -60 -55 -67 -49 -8 8 114 128 130 128 9 0 21 11 26 25 5 14 15 25 23
25 7 0 19 9 27 20 8 11 19 20 26 20 16 0 94 81 94 98 0 8 6 12 14 9 15 -6 126
91 126 110 0 7 8 14 18 18 18 6 72 84 72 104 0 6 7 11 15 11 8 0 15 5 15 10 0
6 6 10 13 10 8 0 19 11 25 25 8 17 20 25 36 25 15 0 25 7 29 19 2 11 23 29 46
40 22 12 41 26 41 31 0 6 11 10 24 10 13 0 26 7 30 15 3 8 17 15 31 15 14 0
33 9 42 20 15 17 30 20 110 20 76 0 94 -3 101 -17 7 -12 27 -18 73 -21 62 -4
65 -3 87 27 l23 31 -26 38 c-14 20 -29 37 -33 38 -4 0 -15 4 -25 9 -47 20
-268 -25 -298 -61 -6 -8 -21 -14 -34 -14 -12 0 -30 -9 -40 -20 -10 -11 -26
-20 -35 -20 -9 0 -26 -13 -38 -30 -13 -16 -29 -30 -38 -30 -13 0 -52 -31 -108
-86 -11 -12 -30 -24 -42 -28 -12 -3 -26 -18 -32 -31 -6 -14 -18 -25 -27 -25
-8 0 -15 -4 -15 -10 0 -5 -5 -10 -11 -10 -7 0 -22 -10 -34 -23 -48 -48 -109
-102 -116 -102 -14 0 -59 -64 -54 -78 7 -16 -86 -113 -117 -123 -10 -3 -18
-11 -18 -17 0 -14 -63 -67 -79 -67 -6 0 -11 -7 -11 -15 0 -8 -7 -15 -15 -15
-9 0 -19 -11 -24 -23 -11 -29 -68 -87 -85 -87 -15 0 -101 -89 -109 -112 -4
-10 -13 -18 -22 -18 -19 0 -52 -33 -57 -56 -2 -11 -11 -20 -22 -22 -10 -2 -25
-11 -35 -20 -9 -10 -28 -26 -42 -37 -14 -11 -31 -30 -37 -42 -7 -12 -26 -23
-46 -27 -22 -4 -36 -13 -39 -26 -3 -11 -12 -20 -21 -20 -9 0 -26 -9 -38 -20
-13 -12 -30 -27 -39 -35 -9 -8 -21 -15 -28 -15 -7 0 -33 -13 -58 -30 -52 -35
-63 -37 -63 -10 0 11 6 20 14 20 8 0 17 13 21 29 3 16 13 35 21 42 8 6 14 17
14 23 0 7 18 32 40 56 98 108 109 121 114 138 10 29 60 82 79 82 9 0 18 6 19
13 6 49 20 75 44 81 14 4 24 14 24 24 1 21 29 56 52 65 10 3 20 18 24 32 3 14
10 25 15 25 5 0 9 9 9 20 0 13 7 20 20 20 13 0 22 9 26 25 3 13 15 27 25 30
10 4 19 13 19 20 0 8 26 41 58 73 64 67 102 116 102 132 0 5 7 10 15 10 9 0
19 8 23 18 12 31 60 82 76 82 9 0 16 6 16 13 0 13 43 57 55 57 9 0 46 29 118
92 54 49 57 54 57 98 0 61 -21 81 -86 82 -66 1 -113 -7 -149 -26 -16 -9 -35
-16 -41 -16 -6 0 -17 -7 -24 -15 -7 -8 -23 -15 -36 -15 -15 0 -24 -6 -24 -15
0 -8 -4 -15 -8 -15 -4 0 -39 -20 -76 -45 -73 -48 -122 -57 -190 -35 -38 12
-152 40 -188 47 -16 3 -28 9 -28 14 0 5 -9 9 -20 9 -12 0 -36 15 -55 33 -24
23 -52 38 -90 47 -31 7 -58 17 -61 21 -6 11 -394 11 -408 1 -6 -5 -44 -14 -84
-21 -44 -8 -76 -19 -79 -27 -3 -8 -14 -14 -24 -14 -10 0 -28 -9 -39 -20 -11
-11 -29 -20 -40 -20 -21 0 -52 -15 -83 -39 -21 -17 -52 -36 -93 -55 -17 -8
-36 -22 -44 -30 -7 -9 -23 -16 -35 -16 -31 0 -115 40 -143 67 -12 13 -33 23
-47 23 -17 0 -29 8 -37 25 -6 14 -17 25 -25 25 -7 0 -22 15 -33 33 -11 18 -33
43 -50 55 -19 14 -30 32 -30 46 0 13 -13 38 -30 56 -16 18 -30 35 -30 40 0 12
-33 75 -43 81 -5 4 -10 16 -11 28 -2 32 -20 30 -27 -4 -4 -16 -7 -23 -8 -15 0
9 -14 42 -31 73 -16 32 -30 64 -30 72 0 7 -6 15 -12 18 -18 5 -18 399 0 405 7
2 12 17 12 33 0 19 5 29 15 29 8 0 15 7 15 16 0 9 9 27 20 41 11 14 20 32 20
39 0 8 8 23 18 33 33 37 47 56 47 62 0 4 3 11 8 15 4 4 7 14 7 23 1 25 46 53
67 42 26 -13 87 -31 105 -31 9 0 21 -6 27 -14 6 -7 32 -16 57 -20 25 -3 60
-13 77 -22 60 -32 67 -34 91 -34 14 0 28 -5 31 -10 4 -6 10 -8 15 -5 5 3 11 1
14 -4 3 -5 30 -12 58 -16 68 -10 166 -52 198 -87 14 -15 41 -29 62 -33 21 -4
42 -13 49 -21 16 -20 334 -20 342 0 3 7 29 16 62 20 71 8 199 74 262 134 24
23 48 42 51 42 4 0 12 10 17 23 6 12 20 23 33 25 26 4 37 22 48 77 4 21 16 47
28 56 18 15 20 30 24 142 4 117 3 127 -17 148 -27 29 -36 19 -20 -24 7 -19 9
-43 4 -53 -6 -15 -10 -10 -19 26 -9 36 -16 46 -35 48 -26 4 -51 24 -51 41 0 6
-11 11 -24 11 -15 0 -26 7 -29 20 -3 13 -14 20 -29 20 -12 0 -39 10 -58 21
-26 16 -63 24 -145 31 -60 6 -120 15 -133 21 -17 8 -28 8 -42 -1 -12 -7 -60
-12 -122 -12 -120 0 -324 -17 -353 -29 -58 -25 -78 -31 -95 -31 -11 0 -20 -6
-20 -14 0 -10 -16 -17 -45 -22 -28 -4 -45 -11 -45 -20 0 -8 -9 -14 -20 -14
-20 0 -30 -4 -80 -30 -47 -25 -55 -29 -75 -36 -11 -4 -30 -9 -43 -10 -19 -2
-23 1 -20 19 2 15 11 23 30 25 14 2 29 10 32 18 9 23 -47 18 -62 -6 -7 -11
-19 -20 -27 -20 -8 0 -21 -13 -30 -29 -22 -43 -88 -52 -147 -21 -24 12 -45 25
-48 29 -9 11 -71 41 -86 41 -8 0 -14 5 -14 10 0 6 -9 10 -20 10 -11 0 -23 7
-26 15 -4 8 -17 15 -31 15 -16 0 -27 7 -30 19 -3 13 -17 21 -44 25 -22 3 -39
12 -39 19 0 7 -26 21 -57 31 -69 21 -93 40 -93 76 0 14 -5 31 -12 38 -8 8 -8
15 -1 24 6 7 13 85 17 173 3 88 11 178 16 200 6 22 12 45 13 52 2 7 6 16 10
19 4 4 7 20 7 36 0 30 15 105 32 153 11 33 37 137 43 172 2 12 6 27 10 32 3 6
10 63 16 128 6 76 15 125 25 141 13 20 16 60 18 227 1 196 0 204 -21 234 -13
16 -23 40 -23 51 0 46 -19 67 -115 133 -69 46 -107 58 -121 36z m1845 -2126
c3 -6 36 -16 73 -23 37 -6 73 -18 79 -26 6 -8 21 -14 33 -14 11 0 33 -12 49
-25 41 -36 38 -98 -6 -148 -18 -20 -36 -37 -40 -37 -5 0 -22 -14 -40 -31 -37
-35 -129 -80 -171 -83 -17 -1 -32 -8 -34 -14 -4 -14 -262 -17 -262 -3 0 8 -90
32 -175 47 -22 4 -49 13 -60 20 -11 7 -38 16 -59 20 -21 4 -62 15 -90 25 -28
11 -60 19 -72 19 -12 0 -24 6 -27 14 -3 8 -27 15 -63 18 -37 3 -61 11 -69 21
-7 10 -19 17 -27 17 -13 0 -17 26 -10 62 3 11 71 38 96 38 12 0 32 9 44 20 12
11 34 20 50 20 16 0 35 6 41 14 7 8 38 18 69 21 31 4 80 13 107 21 28 7 68 16
90 18 76 8 467 -2 474 -11z m-1337 -1275 c-9 -9 -12 -7 -12 12 0 19 3 21 12
12 9 -9 9 -15 0 -24z m1331 -197 c10 -7 17 -21 17 -31 0 -15 -19 -18 -181 -24
-183 -7 -229 -15 -229 -38 -1 -7 -14 -28 -30 -47 -16 -19 -28 -36 -27 -37 4
-4 67 19 92 33 11 6 54 16 95 22 73 11 101 15 204 27 26 3 58 2 70 -4 11 -6
38 -13 59 -17 21 -3 50 -18 66 -34 16 -16 43 -35 60 -42 17 -8 30 -18 28 -23
-7 -21 -69 -27 -232 -22 -113 3 -156 2 -130 -4 115 -26 186 -33 348 -35 98 -1
180 -5 183 -7 2 -3 -28 -8 -68 -12 -39 -3 -78 -12 -86 -19 -20 -16 -652 -17
-673 -1 -8 6 -59 17 -114 23 -55 7 -122 19 -150 28 -27 9 -56 17 -63 19 -29 8
-7 49 37 71 24 12 51 29 61 38 9 8 21 15 27 15 6 0 16 7 23 15 7 8 20 15 30
15 9 0 27 9 39 19 12 10 41 22 65 25 25 4 49 13 55 20 7 8 26 12 44 11 17 -2
38 2 45 8 22 18 90 26 208 24 77 -2 116 -6 127 -16z m1097 -16 c20 -24 2 -72
-38 -103 -20 -15 -38 -30 -40 -34 -2 -5 -12 -8 -23 -8 -11 0 -30 -6 -42 -14
-30 -19 -176 -37 -199 -25 -17 9 -15 14 21 50 22 21 44 39 49 39 5 0 15 7 22
15 14 17 67 45 86 45 7 0 22 9 33 21 12 13 26 19 38 15 10 -3 25 -1 33 4 22
14 46 12 60 -5z m-684 -126 c6 -5 35 -11 66 -15 67 -8 90 -19 68 -34 -8 -5
-28 -10 -45 -10 -16 0 -41 -7 -55 -15 -14 -8 -42 -14 -62 -15 -32 0 -45 7 -83
46 -24 26 -42 51 -39 56 7 11 133 0 150 -13z m124 -100 c0 -5 -19 -8 -42 -8
-28 1 -34 3 -18 6 14 3 29 9 34 13 10 10 26 4 26 -11z m233 -635 c3 -4 -10
-15 -30 -25 -45 -23 -53 -18 -17 10 28 22 37 25 47 15z"/>
<path d="M4930 1780 c0 -5 14 -10 32 -10 36 0 35 4 -4 14 -17 4 -28 2 -28 -4z"/>
<path d="M3810 2437 c0 -26 4 -47 9 -47 5 0 14 -21 20 -47 10 -45 10 -44 6 31
-2 54 -9 84 -19 95 -15 14 -16 11 -16 -32z"/>
<path d="M6560 1610 c0 -5 5 -10 10 -10 6 0 10 5 10 10 0 6 -4 10 -10 10 -5 0
-10 -4 -10 -10z"/>
<path d="M4270 1573 c0 -8 109 -53 126 -53 10 0 -33 27 -58 36 -10 3 -18 10
-18 15 0 5 -11 9 -25 9 -14 0 -25 -3 -25 -7z"/>
<path d="M6473 1540 c-18 -11 -33 -22 -33 -24 0 -9 59 16 71 30 16 20 0 17
-38 -6z"/>
<path d="M6425 1491 c-3 -6 -15 -11 -26 -11 -10 0 -19 -4 -19 -10 0 -5 6 -10
13 -10 18 0 53 27 45 35 -3 3 -9 2 -13 -4z"/>
<path d="M6192 1440 c-7 -11 -8 -20 -4 -20 5 0 17 9 27 20 14 15 15 20 4 20
-8 0 -20 -9 -27 -20z"/>
<path d="M6135 1399 c-4 -6 -5 -13 -2 -16 7 -7 27 6 27 18 0 12 -17 12 -25 -2z"/>
<path d="M6085 1350 c-3 -6 1 -7 9 -4 18 7 21 14 7 14 -6 0 -13 -4 -16 -10z"/>
</g>
</svg>
